<svg width="172" height="345" viewBox="0 0 172 345" fill="none" xmlns="http://www.w3.org/2000/svg">
<rect x="2.5" y="2.5" width="167" height="86" rx="43" fill="#FFDD02" stroke="white" stroke-width="5"/>
<path d="M63.2344 46.0156H57.3906L57.3594 42.7969H62.2656C63.1302 42.7969 63.8385 42.6875 64.3906 42.4688C64.9427 42.2396 65.3542 41.9115 65.625 41.4844C65.9062 41.0469 66.0469 40.5156 66.0469 39.8906C66.0469 39.1823 65.9115 38.6094 65.6406 38.1719C65.3802 37.7344 64.9688 37.4167 64.4062 37.2188C63.8542 37.0208 63.1406 36.9219 62.2656 36.9219H59.0156V56H54.3281V33.25H62.2656C63.5885 33.25 64.7708 33.375 65.8125 33.625C66.8646 33.875 67.7552 34.2552 68.4844 34.7656C69.2135 35.276 69.7708 35.9219 70.1562 36.7031C70.5417 37.474 70.7344 38.3906 70.7344 39.4531C70.7344 40.3906 70.5208 41.2552 70.0938 42.0469C69.6771 42.8385 69.0156 43.4844 68.1094 43.9844C67.2135 44.4844 66.0417 44.7604 64.5938 44.8125L63.2344 46.0156ZM63.0312 56H56.1094L57.9375 52.3438H63.0312C63.8542 52.3438 64.526 52.2135 65.0469 51.9531C65.5677 51.6823 65.9531 51.3177 66.2031 50.8594C66.4531 50.401 66.5781 49.875 66.5781 49.2812C66.5781 48.6146 66.4635 48.0365 66.2344 47.5469C66.0156 47.0573 65.6615 46.6823 65.1719 46.4219C64.6823 46.151 64.0365 46.0156 63.2344 46.0156H58.7188L58.75 42.7969H64.375L65.4531 44.0625C66.8385 44.0417 67.9531 44.2865 68.7969 44.7969C69.651 45.2969 70.2708 45.9479 70.6562 46.75C71.0521 47.5521 71.25 48.4115 71.25 49.3281C71.25 50.7865 70.9323 52.0156 70.2969 53.0156C69.6615 54.0052 68.7292 54.75 67.5 55.25C66.2812 55.75 64.7917 56 63.0312 56ZM82.2656 56.3125C80.9531 56.3125 79.776 56.1042 78.7344 55.6875C77.6927 55.2604 76.8073 54.6719 76.0781 53.9219C75.3594 53.1719 74.8073 52.3021 74.4219 51.3125C74.0365 50.3125 73.8438 49.25 73.8438 48.125V47.5C73.8438 46.2188 74.026 45.0469 74.3906 43.9844C74.7552 42.9219 75.276 42 75.9531 41.2188C76.6406 40.4375 77.474 39.8385 78.4531 39.4219C79.4323 38.9948 80.5365 38.7812 81.7656 38.7812C82.9635 38.7812 84.026 38.9792 84.9531 39.375C85.8802 39.7708 86.6562 40.3333 87.2812 41.0625C87.9167 41.7917 88.3958 42.6667 88.7188 43.6875C89.0417 44.6979 89.2031 45.8229 89.2031 47.0625V48.9375H75.7656V45.9375H84.7812V45.5938C84.7812 44.9688 84.6667 44.4115 84.4375 43.9219C84.2188 43.4219 83.8854 43.026 83.4375 42.7344C82.9896 42.4427 82.4167 42.2969 81.7188 42.2969C81.125 42.2969 80.6146 42.4271 80.1875 42.6875C79.7604 42.9479 79.4115 43.3125 79.1406 43.7812C78.8802 44.25 78.6823 44.8021 78.5469 45.4375C78.4219 46.0625 78.3594 46.75 78.3594 47.5V48.125C78.3594 48.8021 78.4531 49.4271 78.6406 50C78.8385 50.5729 79.1146 51.0677 79.4688 51.4844C79.8333 51.901 80.2708 52.224 80.7812 52.4531C81.3021 52.6823 81.8906 52.7969 82.5469 52.7969C83.3594 52.7969 84.1146 52.6406 84.8125 52.3281C85.5208 52.0052 86.1302 51.5208 86.6406 50.875L88.8281 53.25C88.474 53.7604 87.9896 54.25 87.375 54.7188C86.7708 55.1875 86.0417 55.5729 85.1875 55.875C84.3333 56.1667 83.3594 56.3125 82.2656 56.3125ZM96.2656 42.7812V56H91.7656V39.0938H96L96.2656 42.7812ZM101.359 38.9844L101.281 43.1562C101.062 43.125 100.797 43.099 100.484 43.0781C100.182 43.0469 99.9062 43.0312 99.6562 43.0312C99.0208 43.0312 98.4688 43.1146 98 43.2812C97.5417 43.4375 97.1562 43.6719 96.8438 43.9844C96.5417 44.2969 96.3125 44.6771 96.1562 45.125C96.0104 45.5729 95.9271 46.0833 95.9062 46.6562L95 46.375C95 45.2812 95.1094 44.276 95.3281 43.3594C95.5469 42.4323 95.8646 41.625 96.2812 40.9375C96.7083 40.25 97.2292 39.7188 97.8438 39.3438C98.4583 38.9688 99.1615 38.7812 99.9531 38.7812C100.203 38.7812 100.458 38.8021 100.719 38.8438C100.979 38.875 101.193 38.9219 101.359 38.9844ZM113.875 39.0938H117.953V55.4375C117.953 56.9792 117.609 58.2865 116.922 59.3594C116.245 60.4427 115.297 61.2604 114.078 61.8125C112.859 62.375 111.443 62.6562 109.828 62.6562C109.12 62.6562 108.37 62.5625 107.578 62.375C106.797 62.1875 106.047 61.8958 105.328 61.5C104.62 61.1042 104.026 60.6042 103.547 60L105.531 57.3438C106.052 57.9479 106.656 58.4167 107.344 58.75C108.031 59.0938 108.792 59.2656 109.625 59.2656C110.438 59.2656 111.125 59.1146 111.688 58.8125C112.25 58.5208 112.682 58.0885 112.984 57.5156C113.286 56.9531 113.438 56.2708 113.438 55.4688V43L113.875 39.0938ZM102.5 47.75V47.4219C102.5 46.1302 102.656 44.9583 102.969 43.9062C103.292 42.8438 103.745 41.9323 104.328 41.1719C104.922 40.4115 105.641 39.8229 106.484 39.4062C107.328 38.9896 108.281 38.7812 109.344 38.7812C110.469 38.7812 111.411 38.9896 112.172 39.4062C112.932 39.8229 113.557 40.4167 114.047 41.1875C114.536 41.9479 114.917 42.849 115.188 43.8906C115.469 44.9219 115.688 46.0521 115.844 47.2812V48C115.688 49.1771 115.453 50.2708 115.141 51.2812C114.828 52.2917 114.417 53.1771 113.906 53.9375C113.396 54.6875 112.76 55.2708 112 55.6875C111.25 56.1042 110.354 56.3125 109.312 56.3125C108.271 56.3125 107.328 56.099 106.484 55.6719C105.651 55.2448 104.938 54.6458 104.344 53.875C103.75 53.1042 103.292 52.1979 102.969 51.1562C102.656 50.1146 102.5 48.9792 102.5 47.75ZM107 47.4219V47.75C107 48.4479 107.068 49.099 107.203 49.7031C107.339 50.3073 107.547 50.8438 107.828 51.3125C108.12 51.7708 108.479 52.1302 108.906 52.3906C109.344 52.6406 109.859 52.7656 110.453 52.7656C111.276 52.7656 111.948 52.5938 112.469 52.25C112.99 51.8958 113.38 51.4115 113.641 50.7969C113.901 50.1823 114.052 49.474 114.094 48.6719V46.625C114.073 45.9688 113.984 45.3802 113.828 44.8594C113.672 44.3281 113.453 43.875 113.172 43.5C112.891 43.125 112.526 42.8333 112.078 42.625C111.63 42.4167 111.099 42.3125 110.484 42.3125C109.891 42.3125 109.375 42.4479 108.938 42.7188C108.51 42.9792 108.151 43.3385 107.859 43.7969C107.578 44.2552 107.365 44.7969 107.219 45.4219C107.073 46.0365 107 46.7031 107 47.4219Z" fill="#333333"/>
<path d="M86 86L86 345" stroke="white" stroke-width="5"/>
</svg>
