<svg width="322" height="345" viewBox="0 0 322 345" fill="none" xmlns="http://www.w3.org/2000/svg">
<rect x="2.5" y="2.5" width="317" height="86" rx="43" fill="#FFDD02" stroke="white" stroke-width="5"/>
<path d="M53.625 33.25V56H48.9531V33.25H53.625ZM60.625 33.25V36.9219H42.0625V33.25H60.625ZM78.4688 42.5156V46.1719H66.5938V42.5156H78.4688ZM67.9844 33.25V56H63.2969V33.25H67.9844ZM81.8125 33.25V56H77.1406V33.25H81.8125ZM98.5469 33.25V56H93.8594V33.25H98.5469ZM112.172 33.25L103.156 44.4844L97.9531 50.0781L97.1094 45.6406L100.625 40.8281L106.422 33.25H112.172ZM106.844 56L100.141 45.4844L103.609 42.5781L112.391 56H106.844ZM112.766 47.7188V47.3906C112.766 46.151 112.943 45.0104 113.297 43.9688C113.651 42.9167 114.167 42.0052 114.844 41.2344C115.521 40.4635 116.354 39.8646 117.344 39.4375C118.333 39 119.469 38.7812 120.75 38.7812C122.031 38.7812 123.172 39 124.172 39.4375C125.172 39.8646 126.01 40.4635 126.688 41.2344C127.375 42.0052 127.896 42.9167 128.25 43.9688C128.604 45.0104 128.781 46.151 128.781 47.3906V47.7188C128.781 48.9479 128.604 50.0885 128.25 51.1406C127.896 52.1823 127.375 53.0938 126.688 53.875C126.01 54.6458 125.177 55.2448 124.188 55.6719C123.198 56.099 122.062 56.3125 120.781 56.3125C119.5 56.3125 118.359 56.099 117.359 55.6719C116.37 55.2448 115.531 54.6458 114.844 53.875C114.167 53.0938 113.651 52.1823 113.297 51.1406C112.943 50.0885 112.766 48.9479 112.766 47.7188ZM117.266 47.3906V47.7188C117.266 48.4271 117.328 49.0885 117.453 49.7031C117.578 50.3177 117.776 50.8594 118.047 51.3281C118.328 51.7865 118.693 52.1458 119.141 52.4062C119.589 52.6667 120.135 52.7969 120.781 52.7969C121.406 52.7969 121.943 52.6667 122.391 52.4062C122.839 52.1458 123.198 51.7865 123.469 51.3281C123.74 50.8594 123.938 50.3177 124.062 49.7031C124.198 49.0885 124.266 48.4271 124.266 47.7188V47.3906C124.266 46.7031 124.198 46.0573 124.062 45.4531C123.938 44.8385 123.734 44.2969 123.453 43.8281C123.182 43.349 122.823 42.974 122.375 42.7031C121.927 42.4323 121.385 42.2969 120.75 42.2969C120.115 42.2969 119.573 42.4323 119.125 42.7031C118.688 42.974 118.328 43.349 118.047 43.8281C117.776 44.2969 117.578 44.8385 117.453 45.4531C117.328 46.0573 117.266 46.7031 117.266 47.3906ZM114.734 34.6406C114.734 34.099 114.938 33.6406 115.344 33.2656C115.76 32.8802 116.271 32.6875 116.875 32.6875C117.5 32.6875 118.016 32.8802 118.422 33.2656C118.828 33.6406 119.031 34.099 119.031 34.6406C119.031 35.1823 118.828 35.6406 118.422 36.0156C118.016 36.3906 117.5 36.5781 116.875 36.5781C116.271 36.5781 115.76 36.3906 115.344 36.0156C114.938 35.6406 114.734 35.1823 114.734 34.6406ZM122.406 34.6562C122.406 34.1042 122.609 33.6406 123.016 33.2656C123.422 32.8906 123.932 32.7031 124.547 32.7031C125.161 32.7031 125.672 32.8906 126.078 33.2656C126.495 33.6406 126.703 34.1042 126.703 34.6562C126.703 35.1979 126.495 35.6562 126.078 36.0312C125.672 36.3958 125.161 36.5781 124.547 36.5781C123.932 36.5781 123.422 36.3958 123.016 36.0312C122.609 35.6562 122.406 35.1979 122.406 34.6562ZM136.297 32V56H131.781V32H136.297ZM144.422 42.7031V56H139.922V39.0938H144.141L144.422 42.7031ZM143.766 46.9531H142.547C142.547 45.7031 142.708 44.5781 143.031 43.5781C143.354 42.5677 143.807 41.7083 144.391 41C144.974 40.2812 145.667 39.7344 146.469 39.3594C147.281 38.974 148.188 38.7812 149.188 38.7812C149.979 38.7812 150.703 38.8958 151.359 39.125C152.016 39.3542 152.578 39.7188 153.047 40.2188C153.526 40.7188 153.891 41.3802 154.141 42.2031C154.401 43.026 154.531 44.0312 154.531 45.2188V56H150V45.2031C150 44.4531 149.896 43.8698 149.688 43.4531C149.479 43.0365 149.172 42.7448 148.766 42.5781C148.37 42.401 147.88 42.3125 147.297 42.3125C146.693 42.3125 146.167 42.4323 145.719 42.6719C145.281 42.9115 144.917 43.2448 144.625 43.6719C144.344 44.0885 144.13 44.5781 143.984 45.1406C143.839 45.7031 143.766 46.3073 143.766 46.9531ZM174.797 44.4688V48H165.969V44.4688H174.797ZM188.938 33.25H192.906L198.75 49.9531L204.594 33.25H208.562L200.344 56H197.156L188.938 33.25ZM186.797 33.25H190.75L191.469 49.5312V56H186.797V33.25ZM206.75 33.25H210.719V56H206.031V49.5312L206.75 33.25ZM222.328 56.3125C221.016 56.3125 219.839 56.1042 218.797 55.6875C217.755 55.2604 216.87 54.6719 216.141 53.9219C215.422 53.1719 214.87 52.3021 214.484 51.3125C214.099 50.3125 213.906 49.25 213.906 48.125V47.5C213.906 46.2188 214.089 45.0469 214.453 43.9844C214.818 42.9219 215.339 42 216.016 41.2188C216.703 40.4375 217.536 39.8385 218.516 39.4219C219.495 38.9948 220.599 38.7812 221.828 38.7812C223.026 38.7812 224.089 38.9792 225.016 39.375C225.943 39.7708 226.719 40.3333 227.344 41.0625C227.979 41.7917 228.458 42.6667 228.781 43.6875C229.104 44.6979 229.266 45.8229 229.266 47.0625V48.9375H215.828V45.9375H224.844V45.5938C224.844 44.9688 224.729 44.4115 224.5 43.9219C224.281 43.4219 223.948 43.026 223.5 42.7344C223.052 42.4427 222.479 42.2969 221.781 42.2969C221.188 42.2969 220.677 42.4271 220.25 42.6875C219.823 42.9479 219.474 43.3125 219.203 43.7812C218.943 44.25 218.745 44.8021 218.609 45.4375C218.484 46.0625 218.422 46.75 218.422 47.5V48.125C218.422 48.8021 218.516 49.4271 218.703 50C218.901 50.5729 219.177 51.0677 219.531 51.4844C219.896 51.901 220.333 52.224 220.844 52.4531C221.365 52.6823 221.953 52.7969 222.609 52.7969C223.422 52.7969 224.177 52.6406 224.875 52.3281C225.583 52.0052 226.193 51.5208 226.703 50.875L228.891 53.25C228.536 53.7604 228.052 54.25 227.438 54.7188C226.833 55.1875 226.104 55.5729 225.25 55.875C224.396 56.1667 223.422 56.3125 222.328 56.3125ZM236.234 42.7031V56H231.734V39.0938H235.953L236.234 42.7031ZM235.578 46.9531H234.359C234.359 45.7031 234.521 44.5781 234.844 43.5781C235.167 42.5677 235.62 41.7083 236.203 41C236.786 40.2812 237.479 39.7344 238.281 39.3594C239.094 38.974 240 38.7812 241 38.7812C241.792 38.7812 242.516 38.8958 243.172 39.125C243.828 39.3542 244.391 39.7188 244.859 40.2188C245.339 40.7188 245.703 41.3802 245.953 42.2031C246.214 43.026 246.344 44.0312 246.344 45.2188V56H241.812V45.2031C241.812 44.4531 241.708 43.8698 241.5 43.4531C241.292 43.0365 240.984 42.7448 240.578 42.5781C240.182 42.401 239.693 42.3125 239.109 42.3125C238.505 42.3125 237.979 42.4323 237.531 42.6719C237.094 42.9115 236.729 43.2448 236.438 43.6719C236.156 44.0885 235.943 44.5781 235.797 45.1406C235.651 45.7031 235.578 46.3073 235.578 46.9531ZM258.906 51.3281C258.906 51.0052 258.812 50.7135 258.625 50.4531C258.438 50.1927 258.089 49.9531 257.578 49.7344C257.078 49.5052 256.354 49.2969 255.406 49.1094C254.552 48.9219 253.755 48.6875 253.016 48.4062C252.286 48.1146 251.651 47.7656 251.109 47.3594C250.578 46.9531 250.161 46.474 249.859 45.9219C249.557 45.3594 249.406 44.7188 249.406 44C249.406 43.2917 249.557 42.625 249.859 42C250.172 41.375 250.615 40.8229 251.188 40.3438C251.771 39.8542 252.479 39.474 253.312 39.2031C254.156 38.9219 255.104 38.7812 256.156 38.7812C257.625 38.7812 258.885 39.0156 259.938 39.4844C261 39.9531 261.812 40.599 262.375 41.4219C262.948 42.2344 263.234 43.1615 263.234 44.2031H258.734C258.734 43.7656 258.641 43.375 258.453 43.0312C258.276 42.6771 257.995 42.401 257.609 42.2031C257.234 41.9948 256.745 41.8906 256.141 41.8906C255.641 41.8906 255.208 41.9792 254.844 42.1562C254.479 42.3229 254.198 42.5521 254 42.8438C253.812 43.125 253.719 43.4375 253.719 43.7812C253.719 44.0417 253.771 44.276 253.875 44.4844C253.99 44.6823 254.172 44.8646 254.422 45.0312C254.672 45.1979 254.995 45.3542 255.391 45.5C255.797 45.6354 256.297 45.7604 256.891 45.875C258.109 46.125 259.198 46.4531 260.156 46.8594C261.115 47.2552 261.875 47.7969 262.438 48.4844C263 49.1615 263.281 50.0521 263.281 51.1562C263.281 51.9062 263.115 52.5938 262.781 53.2188C262.448 53.8438 261.969 54.3906 261.344 54.8594C260.719 55.3177 259.969 55.6771 259.094 55.9375C258.229 56.1875 257.255 56.3125 256.172 56.3125C254.599 56.3125 253.266 56.0312 252.172 55.4688C251.089 54.9062 250.266 54.1927 249.703 53.3281C249.151 52.4531 248.875 51.5573 248.875 50.6406H253.141C253.161 51.2552 253.318 51.75 253.609 52.125C253.911 52.5 254.292 52.7708 254.75 52.9375C255.219 53.1042 255.724 53.1875 256.266 53.1875C256.849 53.1875 257.333 53.1094 257.719 52.9531C258.104 52.7865 258.396 52.5677 258.594 52.2969C258.802 52.0156 258.906 51.6927 258.906 51.3281ZM275.328 52.1875V44.6562C275.328 44.1146 275.24 43.651 275.062 43.2656C274.885 42.8698 274.609 42.5625 274.234 42.3438C273.87 42.125 273.396 42.0156 272.812 42.0156C272.312 42.0156 271.88 42.1042 271.516 42.2812C271.151 42.4479 270.87 42.6927 270.672 43.0156C270.474 43.3281 270.375 43.6979 270.375 44.125H265.875C265.875 43.4062 266.042 42.724 266.375 42.0781C266.708 41.4323 267.193 40.8646 267.828 40.375C268.464 39.875 269.219 39.4844 270.094 39.2031C270.979 38.9219 271.969 38.7812 273.062 38.7812C274.375 38.7812 275.542 39 276.562 39.4375C277.583 39.875 278.385 40.5312 278.969 41.4062C279.562 42.2812 279.859 43.375 279.859 44.6875V51.9219C279.859 52.849 279.917 53.6094 280.031 54.2031C280.146 54.7865 280.312 55.2969 280.531 55.7344V56H275.984C275.766 55.5417 275.599 54.9688 275.484 54.2812C275.38 53.5833 275.328 52.8854 275.328 52.1875ZM275.922 45.7031L275.953 48.25H273.438C272.844 48.25 272.328 48.3177 271.891 48.4531C271.453 48.5885 271.094 48.7812 270.812 49.0312C270.531 49.2708 270.323 49.5521 270.188 49.875C270.062 50.1979 270 50.5521 270 50.9375C270 51.3229 270.089 51.6719 270.266 51.9844C270.443 52.2865 270.698 52.526 271.031 52.7031C271.365 52.8698 271.755 52.9531 272.203 52.9531C272.88 52.9531 273.469 52.8177 273.969 52.5469C274.469 52.276 274.854 51.9427 275.125 51.5469C275.406 51.151 275.552 50.776 275.562 50.4219L276.75 52.3281C276.583 52.7552 276.354 53.1979 276.062 53.6562C275.781 54.1146 275.422 54.5469 274.984 54.9531C274.547 55.349 274.021 55.6771 273.406 55.9375C272.792 56.1875 272.062 56.3125 271.219 56.3125C270.146 56.3125 269.172 56.099 268.297 55.6719C267.432 55.2344 266.745 54.6354 266.234 53.875C265.734 53.1042 265.484 52.2292 265.484 51.25C265.484 50.3646 265.651 49.5781 265.984 48.8906C266.318 48.2031 266.807 47.625 267.453 47.1562C268.109 46.6771 268.927 46.3177 269.906 46.0781C270.885 45.8281 272.021 45.7031 273.312 45.7031H275.922Z" fill="#333333"/>
<path d="M161 86L161 345" stroke="white" stroke-width="5"/>
</svg>
