<svg width="208" height="345" viewBox="0 0 208 345" fill="none" xmlns="http://www.w3.org/2000/svg">
<rect x="2.5" y="2.5" width="203" height="86" rx="43" fill="#FFDD02" stroke="white" stroke-width="5"/>
<path d="M59.3125 33.25V56H54.6406V33.25H59.3125ZM66.3125 33.25V36.9219H47.75V33.25H66.3125ZM84.1562 42.5156V46.1719H72.2812V42.5156H84.1562ZM73.6719 33.25V56H68.9844V33.25H73.6719ZM87.5 33.25V56H82.8281V33.25H87.5ZM104.234 33.25V56H99.5469V33.25H104.234ZM117.859 33.25L108.844 44.4844L103.641 50.0781L102.797 45.6406L106.312 40.8281L112.109 33.25H117.859ZM112.531 56L105.828 45.4844L109.297 42.5781L118.078 56H112.531ZM118.453 47.7188V47.3906C118.453 46.151 118.63 45.0104 118.984 43.9688C119.339 42.9167 119.854 42.0052 120.531 41.2344C121.208 40.4635 122.042 39.8646 123.031 39.4375C124.021 39 125.156 38.7812 126.438 38.7812C127.719 38.7812 128.859 39 129.859 39.4375C130.859 39.8646 131.698 40.4635 132.375 41.2344C133.062 42.0052 133.583 42.9167 133.938 43.9688C134.292 45.0104 134.469 46.151 134.469 47.3906V47.7188C134.469 48.9479 134.292 50.0885 133.938 51.1406C133.583 52.1823 133.062 53.0938 132.375 53.875C131.698 54.6458 130.865 55.2448 129.875 55.6719C128.885 56.099 127.75 56.3125 126.469 56.3125C125.188 56.3125 124.047 56.099 123.047 55.6719C122.057 55.2448 121.219 54.6458 120.531 53.875C119.854 53.0938 119.339 52.1823 118.984 51.1406C118.63 50.0885 118.453 48.9479 118.453 47.7188ZM122.953 47.3906V47.7188C122.953 48.4271 123.016 49.0885 123.141 49.7031C123.266 50.3177 123.464 50.8594 123.734 51.3281C124.016 51.7865 124.38 52.1458 124.828 52.4062C125.276 52.6667 125.823 52.7969 126.469 52.7969C127.094 52.7969 127.63 52.6667 128.078 52.4062C128.526 52.1458 128.885 51.7865 129.156 51.3281C129.427 50.8594 129.625 50.3177 129.75 49.7031C129.885 49.0885 129.953 48.4271 129.953 47.7188V47.3906C129.953 46.7031 129.885 46.0573 129.75 45.4531C129.625 44.8385 129.422 44.2969 129.141 43.8281C128.87 43.349 128.51 42.974 128.062 42.7031C127.615 42.4323 127.073 42.2969 126.438 42.2969C125.802 42.2969 125.26 42.4323 124.812 42.7031C124.375 42.974 124.016 43.349 123.734 43.8281C123.464 44.2969 123.266 44.8385 123.141 45.4531C123.016 46.0573 122.953 46.7031 122.953 47.3906ZM120.422 34.6406C120.422 34.099 120.625 33.6406 121.031 33.2656C121.448 32.8802 121.958 32.6875 122.562 32.6875C123.188 32.6875 123.703 32.8802 124.109 33.2656C124.516 33.6406 124.719 34.099 124.719 34.6406C124.719 35.1823 124.516 35.6406 124.109 36.0156C123.703 36.3906 123.188 36.5781 122.562 36.5781C121.958 36.5781 121.448 36.3906 121.031 36.0156C120.625 35.6406 120.422 35.1823 120.422 34.6406ZM128.094 34.6562C128.094 34.1042 128.297 33.6406 128.703 33.2656C129.109 32.8906 129.62 32.7031 130.234 32.7031C130.849 32.7031 131.359 32.8906 131.766 33.2656C132.182 33.6406 132.391 34.1042 132.391 34.6562C132.391 35.1979 132.182 35.6562 131.766 36.0312C131.359 36.3958 130.849 36.5781 130.234 36.5781C129.62 36.5781 129.109 36.3958 128.703 36.0312C128.297 35.6562 128.094 35.1979 128.094 34.6562ZM141.984 32V56H137.469V32H141.984ZM150.109 42.7031V56H145.609V39.0938H149.828L150.109 42.7031ZM149.453 46.9531H148.234C148.234 45.7031 148.396 44.5781 148.719 43.5781C149.042 42.5677 149.495 41.7083 150.078 41C150.661 40.2812 151.354 39.7344 152.156 39.3594C152.969 38.974 153.875 38.7812 154.875 38.7812C155.667 38.7812 156.391 38.8958 157.047 39.125C157.703 39.3542 158.266 39.7188 158.734 40.2188C159.214 40.7188 159.578 41.3802 159.828 42.2031C160.089 43.026 160.219 44.0312 160.219 45.2188V56H155.688V45.2031C155.688 44.4531 155.583 43.8698 155.375 43.4531C155.167 43.0365 154.859 42.7448 154.453 42.5781C154.057 42.401 153.568 42.3125 152.984 42.3125C152.38 42.3125 151.854 42.4323 151.406 42.6719C150.969 42.9115 150.604 43.2448 150.312 43.6719C150.031 44.0885 149.818 44.5781 149.672 45.1406C149.526 45.7031 149.453 46.3073 149.453 46.9531Z" fill="#333333"/>
<path d="M104 86L104 345" stroke="white" stroke-width="5"/>
</svg>
